<svg width="100" height="60" viewBox="0 0 100 60" fill="none" xmlns="http://www.w3.org/2000/svg">
<path fill-rule="evenodd" clip-rule="evenodd" d="M60 10C60 15.525 55.525 20 50 20C44.475 20 40 15.525 40 10C40 4.475 44.475 0 50 0C55.525 0 60 4.475 60 10ZM55 10C55 11.3261 54.4732 12.5979 53.5355 13.5355C52.5979 14.4732 51.3261 15 50 15C48.6739 15 47.4021 14.4732 46.4645 13.5355C45.5268 12.5979 45 11.3261 45 10C45 8.67392 45.5268 7.40215 46.4645 6.46447C47.4021 5.52679 48.6739 5 50 5C51.3261 5 52.5979 5.52679 53.5355 6.46447C54.4732 7.40215 55 8.67392 55 10ZM35 13.75C35 16.7337 33.8147 19.5952 31.705 21.705C29.5952 23.8147 26.7337 25 23.75 25C22.2725 25.0003 20.8095 24.7096 19.4444 24.1443C18.0794 23.5791 16.839 22.7504 15.7943 21.7057C14.7496 20.661 13.9209 19.4206 13.3557 18.0556C12.7904 16.6905 12.4997 15.2275 12.5 13.75C12.5 7.535 17.535 2.5 23.75 2.5C29.965 2.5 35 7.535 35 13.75ZM30 13.75C30 17.205 27.205 20 23.75 20C22.9291 20.0003 22.1163 19.8389 21.3578 19.5249C20.5994 19.2109 19.9103 18.7506 19.3299 18.1702C18.7494 17.5897 18.2891 16.9006 17.9751 16.1422C17.6611 15.3837 17.4997 14.5709 17.5 13.75C17.5 10.295 20.295 7.5 23.75 7.5C27.205 7.5 30 10.295 30 13.75ZM0 43.635C0 34.57 16.655 30 25 30C27.0025 30 29.485 30.2625 32.1 30.79C35.3325 28.275 41.6825 25 50 25C58.3175 25 64.6675 28.275 67.9 30.79C70.515 30.2625 72.9975 30 75 30C83.3425 30 100 34.5675 100 43.635V60H0V43.635ZM5 43.635C5 43.045 5.235 42.2575 6.28 41.2025C7.3725 40.1025 9.1 38.9925 11.3725 38C15.95 36 21.5125 35 25 35C28.4875 35 34.055 36 38.625 38C40.9 38.9925 42.6275 40.105 43.72 41.2025C44.765 42.2575 45 43.045 45 43.635V55H5V43.635ZM61.375 32.6125C57.8322 30.8855 53.9413 29.9919 50 30C45.3125 30 41.42 31.2375 38.625 32.6125C44.725 34.855 50 38.5325 50 43.6375C50 38.5325 55.275 34.855 61.375 32.6125ZM56.28 41.2025C55.235 42.2575 55 43.045 55 43.635V55H95V43.635C95 43.045 94.765 42.2575 93.72 41.2025C92.6275 40.1025 90.9 38.9925 88.6275 38C84.05 36 78.4875 35 75 35C71.5125 35 65.945 36 61.375 38C59.1 38.9925 57.3725 40.105 56.28 41.2025ZM76.25 25C82.465 25 87.5 19.965 87.5 13.75C87.5 7.535 82.465 2.5 76.25 2.5C74.7725 2.49967 73.3095 2.79044 71.9444 3.35569C70.5794 3.92094 69.339 4.74959 68.2943 5.79432C67.2496 6.83904 66.4209 8.07936 65.8557 9.44442C65.2904 10.8095 64.9997 12.2725 65 13.75C65 16.7337 66.1853 19.5952 68.2951 21.705C70.4048 23.8147 73.2663 25 76.25 25ZM76.25 20C79.705 20 82.5 17.205 82.5 13.75C82.5 10.295 79.705 7.5 76.25 7.5C75.4291 7.49967 74.6163 7.66111 73.8578 7.97508C73.0994 8.28906 72.4103 8.74942 71.8298 9.32985C71.2494 9.91028 70.7891 10.5994 70.4751 11.3578C70.1611 12.1163 69.9997 12.9291 70 13.75C70 17.205 72.795 20 76.25 20Z" fill="#B85E65"/>
</svg>
