<svg width="75" height="60" viewBox="0 0 75 60" fill="none" xmlns="http://www.w3.org/2000/svg">
<path d="M73.0674 19.2187C74.7783 20.2265 75.54 22.5117 74.4267 24.3164C73.5244 26.0273 71.2392 26.789 69.4346 25.6758L37.3955 8.04021L5.57202 25.6758C3.76147 26.789 1.47866 26.0273 0.472602 24.3164C-0.533218 22.5117 0.119048 20.2265 1.92983 19.2187L35.6845 0.471885C36.8095 -0.157295 38.1923 -0.157295 39.3173 0.471885L73.0674 19.2187ZM32.708 23.4375C32.708 20.8476 34.9111 18.75 37.3955 18.75C40.0908 18.75 42.083 20.8476 42.083 23.4375C42.083 26.0273 40.0908 28.125 37.3955 28.125C34.9111 28.125 32.708 26.0273 32.708 23.4375ZM12.083 34.6875C12.083 32.0976 14.2861 30 16.7705 30C19.4658 30 21.458 32.0976 21.458 34.6875C21.458 37.2773 19.4658 39.375 16.7705 39.375C14.2861 39.375 12.083 37.2773 12.083 34.6875ZM62.708 34.6875C62.708 37.2773 60.7158 39.375 58.0205 39.375C55.5361 39.375 53.333 37.2773 53.333 34.6875C53.333 32.0976 55.5361 30 58.0205 30C60.7158 30 62.708 32.0976 62.708 34.6875ZM26.5908 57.5859L23.333 51.7383V56.25C23.333 58.3242 21.7627 60 19.583 60H13.958C11.9892 60 10.208 58.3242 10.208 56.25V51.7383L7.1646 57.5859C6.42749 58.9453 4.72241 59.4609 3.35483 58.7227C1.98725 57.9844 1.47514 56.2852 2.21225 54.9141L6.65015 46.6758C8.44897 43.3359 11.9423 41.25 15.7275 41.25H18.0244C19.9345 41.25 21.7627 41.7773 23.3447 42.7266L27.2705 35.4258C29.0752 32.0859 32.5673 29.8945 36.3525 29.8945H38.6494C42.4345 29.8945 45.9267 32.0859 47.7314 35.4258L51.6572 42.7266C53.2392 41.7773 55.0674 41.25 56.9775 41.25H59.2744C63.0595 41.25 66.5517 43.3359 68.3564 46.6758L72.7861 54.9141C73.5244 56.2852 73.0088 57.9844 71.6494 58.7227C70.2783 59.4609 68.5791 58.9453 67.8408 57.5859L64.583 51.7383V56.25C64.583 58.3242 63.0127 60 60.833 60H55.208C53.2392 60 51.458 58.3242 51.458 56.25V51.7383L48.4111 57.5859C47.6728 58.9453 45.9736 59.4609 44.6025 58.7227C43.1377 57.9844 42.7275 56.2852 43.4658 54.9141L47.7197 47.0039C47.5205 46.8164 47.3447 46.5937 47.2158 46.3359L43.958 40.4883V46.875C43.958 48.9492 42.3877 50.625 40.208 50.625H34.583C32.6142 50.625 30.833 48.9492 30.833 46.875V40.4883L27.7861 46.3359C27.5517 46.5937 27.4814 46.8164 27.2822 47.0039L31.5361 54.9141C32.2744 56.2852 31.7588 57.9844 30.3994 58.7227C29.0283 59.4609 27.3291 58.9453 26.5908 57.5859Z" fill="#B85E65"/>
</svg>
