<svg width="78" height="60" viewBox="0 0 78 60" fill="none" xmlns="http://www.w3.org/2000/svg">
<path d="M0 0V6H66V54H24V60H78V54H72V0H0ZM12.006 9C8.82625 9.01106 5.77981 10.2787 3.53081 12.5266C1.28181 14.7744 0.0126492 17.8203 0 21C0 27.597 5.412 33 12.006 33C15.1841 32.9874 18.2284 31.7188 20.4752 29.4709C22.7219 27.2231 23.9889 24.1782 24 21C24 14.409 18.594 9 12.006 9ZM30 12V18H45V12H30ZM51 12V18H60V12H51ZM12.006 15C15.348 15 18 17.649 18 21C18 24.36 15.351 27 12.006 27C8.646 27 6 24.36 6 21C6 17.649 8.649 15 12.006 15ZM30 24V30H60V24H30ZM0 36V60H6V42H15V60H21V43.974L27.192 47.25C28.947 48.18 31.056 48.177 32.808 47.25V47.256L43.398 41.655L40.599 36.345L30.006 41.946L20.718 37.044C19.4217 36.3592 17.978 36.0008 16.512 36H0Z" fill="#B85E65"/>
</svg>
