<svg width="70" height="60" viewBox="0 0 70 60" fill="none" xmlns="http://www.w3.org/2000/svg">
<path d="M40 47.5H35V42.5C34.998 40.5115 34.2072 38.605 32.8011 37.1989C31.395 35.7928 29.4885 35.002 27.5 35H17.5C15.5115 35.002 13.605 35.7928 12.1989 37.1989C10.7928 38.605 10.002 40.5115 10 42.5V47.5H5V42.5C5.00397 39.186 6.32221 36.0089 8.66555 33.6655C11.0089 31.3222 14.186 30.004 17.5 30H27.5C30.814 30.004 33.9911 31.3222 36.3345 33.6655C38.6778 36.0089 39.996 39.186 40 42.5V47.5ZM22.5 5C23.9834 5 25.4334 5.43987 26.6668 6.26398C27.9001 7.08809 28.8614 8.25943 29.4291 9.62987C29.9968 11.0003 30.1453 12.5083 29.8559 13.9632C29.5665 15.418 28.8522 16.7544 27.8033 17.8033C26.7544 18.8522 25.418 19.5665 23.9632 19.8559C22.5083 20.1453 21.0003 19.9968 19.6299 19.4291C18.2594 18.8614 17.0881 17.9001 16.264 16.6668C15.4399 15.4334 15 13.9834 15 12.5C15 10.5109 15.7902 8.60322 17.1967 7.1967C18.6032 5.79018 20.5109 5 22.5 5V5ZM22.5 0C20.0277 0 17.611 0.733112 15.5554 2.10663C13.4998 3.48015 11.8976 5.43238 10.9515 7.71646C10.0054 10.0005 9.75787 12.5139 10.2402 14.9386C10.7225 17.3634 11.913 19.5907 13.6612 21.3388C15.4093 23.087 17.6366 24.2775 20.0614 24.7598C22.4861 25.2421 24.9995 24.9946 27.2835 24.0485C29.5676 23.1024 31.5199 21.5002 32.8934 19.4446C34.2669 17.389 35 14.9723 35 12.5C35 9.18479 33.683 6.00537 31.3388 3.66117C28.9946 1.31696 25.8152 0 22.5 0V0ZM0 55H70V60H0V55ZM63.2575 10C62.3681 10.0001 61.4878 10.1785 60.6685 10.5245C59.8492 10.8706 59.1076 11.3774 58.4875 12.015L57.5 13.025L56.5125 12.0125C55.8923 11.3751 55.1507 10.8684 54.3314 10.5224C53.5122 10.1765 52.6318 9.9982 51.7425 9.9982C50.8532 9.9982 49.9728 10.1765 49.1536 10.5224C48.3343 10.8684 47.5927 11.3751 46.9725 12.0125C45.7078 13.3182 45.0007 15.0647 45.0007 16.8825C45.0007 18.7003 45.7078 20.4468 46.9725 21.7525L57.5 32.5L68.025 21.755C69.2896 20.4493 69.9968 18.7028 69.9968 16.885C69.9968 15.0672 69.2896 13.3207 68.025 12.015C67.4055 11.378 66.6647 10.8716 65.8463 10.5255C65.0279 10.1794 64.1485 10.0008 63.26 10H63.2575Z" fill="#B85E65"/>
</svg>
