<svg width="48" height="60" viewBox="0 0 48 60" fill="none" xmlns="http://www.w3.org/2000/svg">
<path d="M19.2858 45H36.4286V49.2857H19.2858V45ZM10.7144 45H15.0001V49.2857H10.7144V45ZM19.2858 34.2857H36.4286V38.5714H19.2858V34.2857ZM10.7144 34.2857H15.0001V38.5714H10.7144V34.2857ZM19.2858 23.5714H36.4286V27.8572H19.2858V23.5714ZM10.7144 23.5714H15.0001V27.8572H10.7144V23.5714Z" fill="#B85E65"/>
<path d="M42.8571 6.42857H36.4286V4.28571C36.4286 3.14907 35.977 2.05898 35.1733 1.25526C34.3696 0.451529 33.2795 0 32.1429 0H15C13.8634 0 12.7733 0.451529 11.9695 1.25526C11.1658 2.05898 10.7143 3.14907 10.7143 4.28571V6.42857H4.28571C3.14907 6.42857 2.05898 6.8801 1.25526 7.68383C0.451529 8.48755 0 9.57764 0 10.7143V55.7143C0 56.8509 0.451529 57.941 1.25526 58.7447C2.05898 59.5485 3.14907 60 4.28571 60H42.8571C43.9938 60 45.0839 59.5485 45.8876 58.7447C46.6913 57.941 47.1429 56.8509 47.1429 55.7143V10.7143C47.1429 9.57764 46.6913 8.48755 45.8876 7.68383C45.0839 6.8801 43.9938 6.42857 42.8571 6.42857ZM15 4.28571H32.1429V12.8571H15V4.28571ZM42.8571 55.7143H4.28571V10.7143H10.7143V17.1429H36.4286V10.7143H42.8571V55.7143Z" fill="#B85E65"/>
</svg>
