<svg width="60" height="60" viewBox="0 0 60 60" fill="none" xmlns="http://www.w3.org/2000/svg">
<path d="M27 36H21C21 28.8392 23.8446 21.9716 28.9081 16.9081C33.9716 11.8446 40.8392 9 48 9V15C36.39 15 27 24.39 27 36ZM48 27V21C39.72 21 33 27.72 33 36H39C39 31.02 43.02 27 48 27ZM15 6C15 2.67 12.33 0 9 0C5.67 0 3 2.67 3 6C3 9.33 5.67 12 9 12C12.33 12 15 9.33 15 6ZM28.35 7.5H22.35C22.0019 9.59565 20.9212 11.4997 19.3006 12.8732C17.6799 14.2466 15.6244 15.0003 13.5 15H4.5C2.01 15 0 17.01 0 19.5V27H18V20.22C20.7796 19.3434 23.2413 17.6714 25.0808 15.4107C26.9203 13.15 28.0569 10.3997 28.35 7.5ZM51 45C54.33 45 57 42.33 57 39C57 35.67 54.33 33 51 33C47.67 33 45 35.67 45 39C45 42.33 47.67 45 51 45ZM55.5 48H46.5C44.3756 48.0003 42.3201 47.2466 40.6994 45.8732C39.0788 44.4997 37.9981 42.5956 37.65 40.5H31.65C31.9431 43.3997 33.0797 46.15 34.9192 48.4107C36.7587 50.6714 39.2204 52.3434 42 53.22V60H60V52.5C60 50.01 57.99 48 55.5 48Z" fill="#B85E65"/>
</svg>
