<svg width="25" height="25" viewBox="0 0 25 25" fill="none" xmlns="http://www.w3.org/2000/svg">
<path d="M12.4895 2.0835C6.7395 2.0835 2.08325 6.75016 2.08325 12.5002C2.08325 18.2502 6.7395 22.9168 12.4895 22.9168C18.2499 22.9168 22.9166 18.2502 22.9166 12.5002C22.9166 6.75016 18.2499 2.0835 12.4895 2.0835ZM12.4999 20.8335C7.89575 20.8335 4.16659 17.1043 4.16659 12.5002C4.16659 7.896 7.89575 4.16683 12.4999 4.16683C17.1041 4.16683 20.8333 7.896 20.8333 12.5002C20.8333 17.1043 17.1041 20.8335 12.4999 20.8335ZM13.0208 7.29183H11.4583V13.5418L16.927 16.8231L17.7083 15.5418L13.0208 12.7606V7.29183Z" fill="#B85E65"/>
</svg>
