<svg width="40" height="40" viewBox="0 0 40 40" fill="none" xmlns="http://www.w3.org/2000/svg">
<circle cx="20" cy="20" r="20" fill="#B85E65"/>
<path d="M25.1204 18.7151L28.5915 15.708C28.9915 15.3613 28.9897 14.7258 28.5861 14.3231L26.1088 11.8502C25.3719 11.1142 24.2777 10.9035 23.4004 11.3293C18.1337 13.873 13.8803 18.1205 11.3292 23.3835C10.9035 24.26 11.1141 25.3533 11.851 26.0893L14.3515 28.5853C14.7559 28.9898 15.395 28.9906 15.7417 28.5871L18.7328 25.1026C19.0457 24.7382 19.0048 24.172 18.6386 23.8066L17.4244 22.5942C17.3593 22.5321 17.3164 22.4504 17.3023 22.3616C17.2882 22.2728 17.3036 22.1818 17.3461 22.1026C18.4874 20.1208 20.1335 18.4769 22.1168 17.3382C22.1961 17.2956 22.2873 17.2801 22.3762 17.2942C22.4652 17.3084 22.547 17.3513 22.6092 17.4164L23.819 18.6253C24.187 18.9915 24.7559 19.0315 25.1212 18.7151H25.1204Z" stroke="#F6CE8B" stroke-width="2" stroke-linecap="round" stroke-linejoin="round"/>
</svg>
