<svg width="25" height="25" viewBox="0 0 25 25" fill="none" xmlns="http://www.w3.org/2000/svg">
<path d="M20.6226 21.9418L20.6435 21.9084L22.7266 17.6802L16.6417 13.1166L13.8421 15.2162C12.7863 15.1533 11.7901 14.7056 11.0422 13.9577C10.2943 13.2098 9.8466 12.2136 9.78378 11.1578L11.8834 8.35821L7.31987 2.27344L3.12704 4.33916L3.09164 4.35654L3.05824 4.37749C2.88062 4.48773 2.73417 4.64159 2.63283 4.82444C2.53148 5.00728 2.47863 5.21302 2.47929 5.42207V6.51309C2.47929 8.61525 2.89334 10.6968 3.6978 12.639C4.50226 14.5811 5.68138 16.3458 7.16783 17.8322C8.65428 19.3187 10.419 20.4978 12.3611 21.3022C14.3032 22.1067 16.3848 22.5207 18.487 22.5207H19.578C19.7871 22.5214 19.9928 22.4685 20.1757 22.3672C20.3585 22.2659 20.5124 22.1194 20.6226 21.9418ZM18.487 20.9582C10.5219 20.9582 4.04179 14.4781 4.04179 6.51309V5.63028L6.8476 4.24815L9.93037 8.3585L8.21411 10.6469V10.9073C8.21585 12.466 8.83579 13.9603 9.93793 15.0624C11.0401 16.1646 12.5344 16.7845 14.093 16.7862H14.3534L16.6418 15.07L20.7519 18.1524L19.3695 20.9582H18.487Z" fill="#B85E65"/>
</svg>
