<svg width="25" height="25" viewBox="0 0 25 25" fill="none" xmlns="http://www.w3.org/2000/svg">
<path d="M12.5001 2.0835C10.3043 2.08339 8.19722 2.94991 6.63679 4.49474C5.07636 6.03956 4.18871 8.13783 4.16675 10.3335C4.16675 16.0418 11.5105 22.396 11.823 22.6668C12.0117 22.8282 12.2518 22.9169 12.5001 22.9169C12.7484 22.9169 12.9885 22.8282 13.1772 22.6668C13.5417 22.396 20.8334 16.0418 20.8334 10.3335C20.8115 8.13783 19.9238 6.03956 18.3634 4.49474C16.8029 2.94991 14.6959 2.08339 12.5001 2.0835ZM12.5001 20.4689C10.7605 18.8127 6.25008 14.2189 6.25008 10.3335C6.25008 8.67589 6.90856 7.08618 8.08066 5.91408C9.25277 4.74198 10.8425 4.0835 12.5001 4.0835C14.1577 4.0835 15.7474 4.74198 16.9195 5.91408C18.0916 7.08618 18.7501 8.67589 18.7501 10.3335C18.7501 14.1877 14.2397 18.8127 12.5001 20.4689Z" fill="#B85E65"/>
<path d="M12.5001 6.25C11.779 6.25 11.0741 6.46382 10.4746 6.86443C9.87501 7.26504 9.40772 7.83444 9.13177 8.50063C8.85583 9.16682 8.78363 9.89988 8.9243 10.6071C9.06498 11.3143 9.41221 11.9639 9.92209 12.4738C10.432 12.9837 11.0816 13.3309 11.7888 13.4716C12.496 13.6123 13.2291 13.5401 13.8953 13.2641C14.5615 12.9882 15.1309 12.5209 15.5315 11.9214C15.9321 11.3218 16.1459 10.6169 16.1459 9.89583C16.1459 8.9289 15.7618 8.00157 15.0781 7.31784C14.3943 6.63411 13.467 6.25 12.5001 6.25ZM12.5001 11.4583C12.191 11.4583 11.889 11.3667 11.632 11.195C11.3751 11.0233 11.1748 10.7793 11.0565 10.4938C10.9383 10.2083 10.9073 9.8941 10.9676 9.591C11.0279 9.28791 11.1767 9.0095 11.3952 8.79098C11.6137 8.57246 11.8922 8.42365 12.1953 8.36336C12.4983 8.30307 12.8125 8.33401 13.098 8.45227C13.3835 8.57053 13.6276 8.7708 13.7993 9.02776C13.9709 9.28471 14.0626 9.5868 14.0626 9.89583C14.0626 10.3102 13.898 10.7077 13.6049 11.0007C13.3119 11.2937 12.9145 11.4583 12.5001 11.4583Z" fill="#B85E65"/>
</svg>
