<svg width="201" height="200" viewBox="0 0 201 200" fill="none" xmlns="http://www.w3.org/2000/svg">
<path d="M96.2564 2.81046C98.2136 -0.330606 102.786 -0.330605 104.744 2.81046L116.559 21.7729C117.992 24.0719 120.995 24.8121 123.331 23.4421L142.606 12.1426C145.799 10.2709 149.848 12.396 150.121 16.0869L151.771 38.3682C151.971 41.0696 154.286 43.1205 156.992 42.9934L179.309 41.9455C183.006 41.7719 185.604 45.5353 184.131 48.9304L175.237 69.4262C174.158 71.9112 175.255 74.803 177.71 75.9479L197.958 85.3916C201.313 86.9559 201.864 91.4954 198.981 93.817L181.582 107.832C179.472 109.531 179.099 112.601 180.741 114.756L194.281 132.528C196.524 135.472 194.902 139.747 191.272 140.464L169.352 144.787C166.694 145.311 164.937 147.857 165.389 150.527L169.12 172.556C169.738 176.205 166.315 179.237 162.767 178.184L141.348 171.826C138.752 171.055 136.013 172.492 135.172 175.067L128.238 196.306C127.09 199.824 122.65 200.919 119.998 198.337L103.987 182.754C102.046 180.864 98.9536 180.864 97.0125 182.754L81.0023 198.337C78.3503 200.919 73.9104 199.824 72.7617 196.306L65.8276 175.067C64.9869 172.492 62.2484 171.055 59.6515 171.826L38.2331 178.184C34.6852 179.237 31.2624 176.205 31.8803 172.556L35.6107 150.527C36.063 147.857 34.3061 145.311 31.6485 144.787L9.72849 140.464C6.0975 139.747 4.47596 135.472 6.71888 132.528L20.2592 114.756C21.9009 112.601 21.5281 109.531 19.4184 107.832L2.0185 93.817C-0.863748 91.4954 -0.312553 86.9559 3.04153 85.3916L23.2899 75.9479C25.7449 74.803 26.8415 71.9112 25.7632 69.4262L16.8695 48.9304C15.3962 45.5353 17.9939 41.7719 21.6907 41.9455L44.0085 42.9934C46.7143 43.1205 49.0293 41.0696 49.2293 38.3682L50.8792 16.0869C51.1524 12.396 55.2015 10.2709 58.3942 12.1426L77.6686 23.4421C80.0055 24.8121 83.0083 24.0719 84.4409 21.7729L96.2564 2.81046Z" fill="#E3AF7B"/>
</svg>
