<svg width="31" height="30" viewBox="0 0 31 30" fill="none" xmlns="http://www.w3.org/2000/svg">
<path d="M15.083 0C6.79863 0 0.0830078 6.71563 0.0830078 15C0.0830078 23.2844 6.79863 30 15.083 30C23.3674 30 30.083 23.2844 30.083 15C30.083 6.71563 23.3674 0 15.083 0ZM20.8518 16.9234C20.8518 16.9234 22.1783 18.2328 22.5049 18.8406C22.5143 18.8531 22.5189 18.8656 22.5221 18.8719C22.6549 19.0953 22.6861 19.2687 22.6205 19.3984C22.5111 19.6141 22.1361 19.7203 22.008 19.7297H19.6643C19.5018 19.7297 19.1611 19.6875 18.7486 19.4031C18.4314 19.1813 18.1189 18.8172 17.8143 18.4625C17.3596 17.9344 16.9658 17.4781 16.5689 17.4781C16.5185 17.478 16.4684 17.4859 16.4205 17.5016C16.1205 17.5984 15.7361 18.0266 15.7361 19.1672C15.7361 19.5234 15.4549 19.7281 15.2564 19.7281H14.183C13.8174 19.7281 11.9127 19.6 10.2252 17.8203C8.15957 15.6406 6.30019 11.2687 6.28457 11.2281C6.16738 10.9453 6.40957 10.7937 6.67363 10.7937H9.04082C9.35644 10.7937 9.45957 10.9859 9.53144 11.1562C9.61582 11.3547 9.92519 12.1437 10.433 13.0312C11.2564 14.4781 11.7611 15.0656 12.1658 15.0656C12.2417 15.0647 12.3162 15.0454 12.383 15.0094C12.9111 14.7156 12.8127 12.8328 12.7893 12.4422C12.7893 12.3687 12.7877 11.6 12.5174 11.2312C12.3236 10.9641 11.9939 10.8625 11.7939 10.825C11.8749 10.7133 11.9815 10.6227 12.1049 10.5609C12.4674 10.3797 13.1205 10.3531 13.7689 10.3531H14.1299C14.833 10.3625 15.0143 10.4078 15.2689 10.4719C15.7846 10.5953 15.7955 10.9281 15.7502 12.0672C15.7361 12.3906 15.7221 12.7563 15.7221 13.1875C15.7221 13.2813 15.7174 13.3812 15.7174 13.4875C15.7018 14.0672 15.683 14.725 16.0924 14.9953C16.1458 15.0288 16.2075 15.0467 16.2705 15.0469C16.4127 15.0469 16.8408 15.0469 18.0002 13.0578C18.3578 12.4176 18.6685 11.7523 18.9299 11.0672C18.9533 11.0266 19.0221 10.9016 19.1033 10.8531C19.1633 10.8226 19.2298 10.807 19.2971 10.8078H22.0799C22.383 10.8078 22.5908 10.8531 22.6299 10.9703C22.6986 11.1562 22.6174 11.7234 21.3471 13.4437L20.7799 14.1922C19.6283 15.7016 19.6283 15.7781 20.8518 16.9234V16.9234Z" fill="#B85E65"/>
</svg>
