<svg width="41" height="40" viewBox="0 0 41 40" fill="none" xmlns="http://www.w3.org/2000/svg">
<path d="M37.1108 9.24976C31.1108 -0.000305774 18.8607 -2.75033 9.36061 2.99972C0.110533 8.74976 -2.88949 21.2499 3.11056 30.4999L3.61056 31.2499L1.61055 38.75L9.1106 36.75L9.86061 37.25C13.1106 39 16.6107 40 20.1107 40C23.8607 40 27.6107 39 30.8608 37C40.1108 30.9999 42.8609 18.7498 37.1108 9.24976ZM31.8608 28.4999C30.8608 29.9999 29.6108 30.9999 27.8608 31.2499C26.8607 31.2499 25.6107 31.7499 20.6107 29.7499C16.3607 27.7499 12.8606 24.4999 10.3606 20.7499C8.8606 18.9998 8.1106 16.7498 7.86059 14.4998C7.86059 12.4998 8.6106 10.7498 9.86061 9.49977C10.3606 8.99976 10.8606 8.74976 11.3606 8.74976H12.6106C13.1106 8.74976 13.6106 8.74976 13.8606 9.74977C14.3606 10.9998 15.6107 13.9998 15.6107 14.2498C15.8607 14.4998 15.8607 14.9998 15.6107 15.2498C15.8607 15.7498 15.6107 16.2498 15.3607 16.4998C15.1107 16.7498 14.8606 17.2498 14.6106 17.4998C14.1106 17.7498 13.8606 18.2498 14.1106 18.7498C15.1107 20.2498 16.3607 21.7499 17.6107 22.9999C19.1107 24.2499 20.6107 25.2499 22.3607 25.9999C22.8607 26.2499 23.3607 26.2499 23.6107 25.7499C23.8607 25.2499 25.1107 23.9999 25.6107 23.4999C26.1107 22.9999 26.3607 22.9999 26.8607 23.2499L30.8608 25.2499C31.3608 25.4999 31.8608 25.7499 32.1108 25.9999C32.3608 26.7499 32.3608 27.7499 31.8608 28.4999Z" fill="#B85E65"/>
</svg>
