<svg width="200" height="70" viewBox="0 0 200 70" fill="none" xmlns="http://www.w3.org/2000/svg">
<path d="M2.70139 30.3114L5.96916 30.9348L1.5949 53.7566C0.90564 57.3527 3.2763 60.8364 6.88064 61.524L46.0938 69.0055C49.6982 69.6932 53.1899 67.328 53.8792 63.7319L58.2534 40.9101L61.5212 41.5336C62.1674 41.6567 62.8357 41.586 63.4417 41.3302C64.0476 41.0745 64.5639 40.6452 64.9253 40.0968C65.2868 39.5483 65.4771 38.9052 65.4723 38.2488C65.4674 37.5924 65.2677 36.9522 64.8982 36.4091L41.1123 1.45571C40.8672 1.09484 40.5532 0.785724 40.1882 0.546064C39.8232 0.306404 39.4144 0.140898 38.9852 0.0590176C38.5561 -0.0228631 38.1149 -0.0195127 37.6871 0.0688785C37.2592 0.15727 36.853 0.328967 36.4917 0.574144L1.45777 24.3053C0.913514 24.6741 0.491068 25.1956 0.243838 25.8039C-0.00339138 26.4122 -0.0643035 27.08 0.0688006 27.7228C0.201905 28.3656 0.523049 28.9546 0.991636 29.4154C1.46022 29.8761 2.05521 30.1879 2.70139 30.3114ZM37.4766 7.92993L53.3339 31.2322L47.3469 62.4856L8.13043 55.0035L14.1207 23.7507L37.4766 7.92993Z" fill="#B85E65"/>
<path d="M28.9871 52.2237C41.0876 54.5324 47.2139 43.7412 47.4678 43.2828L41.647 40.0736C41.6065 40.1436 37.6514 47.1178 30.2369 45.7032C22.9236 44.3079 21.7561 36.5794 21.7141 36.2503L15.1168 37.1105C15.1832 37.6301 16.8865 49.9151 28.9871 52.2237Z" fill="#B85E65"/>
<path d="M80.3891 31.2821C78.3469 31.2821 76.6431 30.6839 75.2777 29.4874C73.9241 28.2792 73.2474 26.7214 73.2474 24.8142C73.2474 22.907 73.9182 21.3552 75.2599 20.1588C76.5897 18.9505 78.2876 18.3463 80.3535 18.3463C81.5883 18.3463 82.6391 18.5655 83.5059 19.0038V22.6109C82.4966 22.066 81.4815 21.7935 80.4604 21.7935C79.5105 21.7935 78.7269 22.0837 78.1095 22.6642C77.4921 23.2328 77.1834 23.9495 77.1834 24.8142C77.1834 25.7027 77.5039 26.4312 78.1451 26.9998C78.7981 27.5566 79.6174 27.8349 80.6028 27.8349C81.8139 27.8349 82.841 27.5388 83.684 26.9465V30.6069C82.8172 31.057 81.7189 31.2821 80.3891 31.2821Z" fill="#B85E65"/>
<path d="M95.6732 31.0333H91.8619V26.751C91.3038 26.9998 90.6033 27.1242 89.7603 27.1242C88.2999 27.1242 87.1482 26.7451 86.3052 25.987C85.4622 25.217 85.0407 24.1745 85.0407 22.8596V18.5951H88.852V22.3621C88.852 22.8123 88.9945 23.1558 89.2794 23.3927C89.5763 23.6296 89.9503 23.7481 90.4015 23.7481C91.0426 23.7481 91.5294 23.6355 91.8619 23.4105V18.5951H95.6732V31.0333Z" fill="#B85E65"/>
<path d="M100.581 31.0333H96.6269L101.756 18.524H105.407L110.554 31.0333H106.44L105.55 28.7056H101.489L100.581 31.0333ZM103.519 22.8952L102.593 25.8448H104.428L103.519 22.8952Z" fill="#B85E65"/>
<path d="M117.4 31.2821C115.358 31.2821 113.654 30.6839 112.289 29.4874C110.935 28.2792 110.258 26.7214 110.258 24.8142C110.258 22.907 110.929 21.3552 112.271 20.1588C113.601 18.9505 115.299 18.3463 117.365 18.3463C118.599 18.3463 119.65 18.5655 120.517 19.0038V22.6109C119.508 22.066 118.493 21.7935 117.471 21.7935C116.522 21.7935 115.738 22.0837 115.121 22.6642C114.503 23.2328 114.194 23.9495 114.194 24.8142C114.194 25.7027 114.515 26.4312 115.156 26.9998C115.809 27.5566 116.628 27.8349 117.614 27.8349C118.825 27.8349 119.852 27.5388 120.695 26.9465V30.6069C119.828 31.057 118.73 31.2821 117.4 31.2821Z" fill="#B85E65"/>
<path d="M121.802 21.8823V18.5951H132.756V21.8823H129.176V31.0333H125.347V21.8823H121.802Z" fill="#B85E65"/>
<path d="M132.507 30.8556V27.4796C132.851 27.6336 133.142 27.7105 133.38 27.7105C133.819 27.7105 134.146 27.6217 134.359 27.444C134.87 27.0057 135.131 25.4421 135.143 22.753L135.196 18.5951H145.027V31.0333H141.216V21.8823H138.669L138.651 23.3749C138.64 26.372 138.218 28.4568 137.387 29.6296C136.675 30.672 135.63 31.1933 134.252 31.1933C133.433 31.1933 132.851 31.0807 132.507 30.8556Z" fill="#B85E65"/>
<path d="M150.172 31.0333H146.913V18.5951H150.617V24.7787L155.426 18.5951H158.578V31.0333H154.909V24.9031L150.172 31.0333Z" fill="#B85E65"/>
<path d="M167.051 31.0333H160.461V18.5951H166.784C167.947 18.5951 168.897 18.8676 169.633 19.4125C170.382 19.9455 170.756 20.7333 170.756 21.7757C170.756 22.3799 170.589 22.8833 170.257 23.2861C169.913 23.7007 169.58 23.985 169.259 24.139C169.806 24.2456 170.334 24.601 170.845 25.2051C171.367 25.7974 171.628 26.5378 171.628 27.4262C171.628 28.5042 171.207 29.3749 170.364 30.0383C169.521 30.7016 168.416 31.0333 167.051 31.0333ZM164.291 25.8981V27.9593H166.303C166.647 27.9593 166.92 27.8705 167.122 27.6928C167.336 27.5032 167.443 27.2545 167.443 26.9465C167.443 26.6385 167.336 26.3897 167.122 26.2002C166.909 25.9988 166.635 25.8981 166.303 25.8981H164.291ZM164.291 21.5625V23.2328H166.232C166.493 23.2328 166.707 23.1558 166.873 23.0018C167.051 22.8478 167.14 22.6583 167.14 22.4332C167.14 22.1726 167.051 21.9653 166.873 21.8113C166.707 21.6454 166.493 21.5625 166.232 21.5625H164.291Z" fill="#B85E65"/>
<path d="M188.23 31.0333H184.418V18.5951H188.23V31.0333ZM178.167 31.0333H172.967V18.5951H176.796V22.1844H178.167C179.711 22.1844 180.957 22.6049 181.907 23.446C182.857 24.2871 183.332 25.3473 183.332 26.6266C183.332 27.9179 182.863 28.9781 181.925 29.8073C180.975 30.6246 179.722 31.0333 178.167 31.0333ZM176.796 25.1696V27.8527H177.918C178.381 27.8527 178.755 27.7342 179.04 27.4973C179.337 27.2486 179.485 26.9287 179.485 26.5378C179.485 26.135 179.337 25.8093 179.04 25.5605C178.755 25.2999 178.381 25.1696 177.918 25.1696H176.796Z" fill="#B85E65"/>
<path d="M200 31.0333H190.116V18.5951H199.893V21.8823H193.945V22.984H198.611V26.0047H193.945V27.7461H200V31.0333Z" fill="#B85E65"/>
<path d="M76.2038 52.8713H72.624V47.2919H73.8885C74.6959 45.8467 75.0996 43.6019 75.0996 40.5575V38.1409H84.806V47.2919H86.3732V52.8713H82.7757V50.5791H76.2038V52.8713ZM77.7355 47.2919H80.9947V41.4281H78.6972C78.6972 42.3521 78.6141 43.4123 78.4479 44.6088C78.2816 45.7578 78.0442 46.6522 77.7355 47.2919Z" fill="#B85E65"/>
<path d="M97.5585 50.5791H87.6741V38.1409H97.4517V41.4281H91.5032V42.5298H96.1694V45.5505H91.5032V47.2919H97.5585V50.5791Z" fill="#B85E65"/>
<path d="M98.4444 41.4281V38.1409H109.397V41.4281H105.818V50.5791H101.989V41.4281H98.4444Z" fill="#B85E65"/>
<path d="M113.996 50.5791H110.736V38.1409H114.441V44.3245L119.25 38.1409H122.402V50.5791H118.733V44.4489L113.996 50.5791Z" fill="#B85E65"/>
</svg>
